<?xml version="1.0" encoding="UTF-8"?>
<svg width="18px" height="18px" viewBox="0 0 18 18" version="1.1" xmlns="http://www.w3.org/2000/svg" xmlns:xlink="http://www.w3.org/1999/xlink">
    <!-- Generator: sketchtool 40.3 (33839) - http://www.bohemiancoding.com/sketch -->
    <title>7AA9807D-77EE-4DA7-BD62-1242E6A10BDB</title>
    <desc>Created with sketchtool.</desc>
    <defs></defs>
    <g id="Web-App-4.0" stroke="none" stroke-width="1" fill="none" fill-rule="evenodd">
        <g id="Track-page-4" transform="translate(-405.000000, -578.000000)">
            <g id="Card2" transform="translate(72.000000, 179.000000)">
                <g id="Phone" transform="translate(330.000000, 392.000000)">
                    <g id="call" transform="translate(0.000000, 4.000000)">
                        <rect id="Rectangle-3" x="0" y="0" width="24" height="24"></rect>
                        <path d="M6.6,10.8 C8,13.6 10.4,15.9 13.2,17.4 L15.4,15.2 C15.7,14.9 16.1,14.8 16.4,15 C17.5,15.4 18.7,15.6 20,15.6 C20.6,15.6 21,16 21,16.6 L21,20 C21,20.6 20.6,21 20,21 C10.6,21 3,13.4 3,4 C3,3.4 3.4,3 4,3 L7.5,3 C8.1,3 8.5,3.4 8.5,4 C8.5,5.2 8.7,6.4 9.1,7.6 C9.2,7.9 9.1,8.3 8.9,8.6 L6.6,10.8 L6.6,10.8 Z" id="Shape" fill="#757575"></path>
                    </g>
                </g>
            </g>
        </g>
    </g>
</svg>