<?xml version="1.0" encoding="UTF-8" standalone="no"?>
<svg width="26px" height="12px" viewBox="0 0 26 12" version="1.1" xmlns="http://www.w3.org/2000/svg" xmlns:xlink="http://www.w3.org/1999/xlink">
    <!-- Generator: Sketch 3.8.3 (29802) - http://www.bohemiancoding.com/sketch -->
    <title>icon_v_car</title>
    <desc>Created with Sketch.</desc>
    <defs></defs>
    <g id="Symbols" stroke="none" stroke-width="1" fill="none" fill-rule="evenodd">
        <g id="vehicles/icon_v_car_button" transform="translate(-41.000000, -17.000000)" fill="#757575">
            <g id="icon_v_car_o">
                <g id="icon_v_car" transform="translate(41.407407, 17.555556)">
                    <path d="M19.8802281,3.28372704 C19.8802281,3.28372704 19.7672583,1.27110425 19.7669064,0.74711424 C19.7672583,0.694676527 19.7911896,0.682816453 19.8418677,0.67584822 C20.6090772,0.664973553 21.0514544,0.792337369 21.4808102,1.14008035 C21.7398313,1.3498664 22.3701397,2.08029911 22.4739593,3.0581041 C21.3586901,3.2462112 19.8802281,3.28372704 19.8802281,3.28372704 L19.8802281,3.28372704 Z M19.228452,3.34503341 L14.8296669,3.53296455 L14.8296669,0.642872289 C14.8296669,0.53479429 14.8930145,0.504633807 14.9827569,0.481723101 C15.9065756,0.439772931 17.4248058,0.440617565 19.2305636,0.631892043 C19.2815936,0.637135814 19.3002459,0.648960695 19.304821,0.696365795 C19.3093961,1.20539874 19.228452,3.34503341 19.228452,3.34503341 L19.228452,3.34503341 Z M14.171556,3.57058597 C14.171556,3.57058597 9.30470271,3.68183134 8.86549287,3.68330945 C8.25102141,3.55946495 8.27530465,3.01668182 8.5100426,2.8077756 C8.74478055,2.59851745 10.4565728,1.05322379 11.0330357,0.802684139 C11.6094986,0.552038908 14.4041824,0.292700981 14.3788433,0.659976134 C14.3538562,1.02739206 14.171556,3.57058597 14.171556,3.57058597 L14.171556,3.57058597 Z M24.805502,6.30730671 C24.5440172,6.28302347 24.5426095,6.30730671 24.5426095,6.30730671 C24.5426095,6.30730671 24.6154592,3.60504001 24.4412534,3.43671143 C24.2670476,3.26848843 24.1139576,3.35442997 23.8901295,3.21112368 C23.688825,3.08280965 22.7452981,1.86569161 22.2057879,1.08092076 C22.1434962,0.989946604 22.3138307,0.682288557 22.2684316,0.61207833 C19.5040139,-0.0593707534 11.9853609,-0.209786047 10.7279115,0.386525776 C10.2221867,0.794871272 6.85596708,3.54419114 6.85596708,3.54419114 C6.85596708,3.54419114 1.6470369,4.37661345 1.14201597,4.78450143 C0.842522724,5.235325 0.69119241,6.30730671 0.69119241,6.30730671 C0.69119241,6.30730671 0.535990856,6.30871443 0.312866626,6.51952108 C-0.0144291695,6.82816453 0.0144291695,7.43489351 0.0144291695,7.43489351 C0.0144291695,7.43489351 -0.156961209,8.47449757 0.69119241,8.56283225 C0.853784515,8.55896101 1.47670232,8.55649749 2.41459833,8.55473783 C2.41354254,8.52587949 2.41037516,8.49772502 2.41037516,8.46886668 C2.41037516,7.04354628 3.56576451,5.887805 4.99108491,5.887805 C6.41605338,5.887805 7.57144272,7.04354628 7.57144272,8.46886668 C7.57144272,8.49666922 7.56827535,8.52411984 7.56757148,8.55192239 C10.8461603,8.55227432 14.6927657,8.55508976 17.6954407,8.55755328 C17.6943849,8.52763915 17.6908656,8.49878081 17.6908656,8.46886668 C17.6908656,7.04354628 18.8466069,5.887805 20.2719273,5.887805 C21.6968958,5.887805 22.8522851,7.04354628 22.8522851,8.46886668 C22.8522851,8.49244605 22.8494697,8.5156735 22.8487658,8.5396048 C23.1602247,8.4509182 24.2624725,8.12960523 24.392335,7.98003457 C24.5440172,7.80547681 24.5426095,7.43489351 24.5426095,7.43489351 L24.8058539,7.43489351 C25.0324974,7.43489351 25.0676905,6.33158994 24.805502,6.30730671 L24.805502,6.30730671 Z" id="Fill-147"></path>
                    <path d="M20.2715754,7.03263642 C19.4797307,7.03263642 18.8353451,7.67667008 18.8353451,8.46851475 C18.8353451,9.26071134 19.4797307,9.90509694 20.2715754,9.90509694 C21.063772,9.90509694 21.7078056,9.26071134 21.7078056,8.46851475 C21.7078056,7.67667008 21.063772,7.03263642 20.2715754,7.03263642 L20.2715754,7.03263642 Z M20.2715754,10.506195 C19.1482117,10.506195 18.234247,9.59223031 18.234247,8.46851475 C18.234247,7.34515112 19.1482117,6.43083448 20.2715754,6.43083448 C21.3952909,6.43083448 22.3096076,7.34515112 22.3096076,8.46851475 C22.3096076,9.59223031 21.3952909,10.506195 20.2715754,10.506195 L20.2715754,10.506195 Z" id="Fill-148"></path>
                    <path d="M20.5453777,7.66505636 L20.436631,7.84242957 C20.3894722,7.83011198 20.3402019,7.82272143 20.2891719,7.82131371 C20.2381419,7.81990598 20.1885197,7.82448109 20.140657,7.83433515 L20.0417644,7.65133105 C19.9921422,7.5608848 19.8788204,7.52745135 19.7880222,7.57636976 C19.697224,7.62564009 19.6634387,7.73896186 19.7130609,7.82976005 L19.8119535,8.01276415 C19.7422712,8.08279841 19.6884258,8.16866957 19.656752,8.26509865 L19.4491127,8.25946776 C19.345645,8.25665231 19.2597738,8.33794836 19.2573103,8.44141606 C19.254143,8.54453184 19.3357909,8.63040299 19.4389067,8.63321844 L19.6468979,8.63884933 C19.6732927,8.73668614 19.7222111,8.82537274 19.7880222,8.89927825 L19.6792756,9.07665145 C19.6254301,9.16463419 19.6528807,9.27971562 19.7408635,9.33391298 C19.8288462,9.38775842 19.9439276,9.36030781 19.9977731,9.27197313 L20.1065197,9.09495186 C20.1540304,9.10762138 20.2033008,9.11465999 20.2539788,9.11606772 C20.3053607,9.11747544 20.354983,9.11290034 20.4028456,9.10304627 L20.5020901,9.28569844 C20.5513605,9.37649663 20.6646822,9.410282 20.7554804,9.36101167 C20.8163645,9.32828209 20.8515576,9.26634224 20.8533172,9.20158694 C20.8540211,9.16991316 20.8469825,9.13753551 20.8307937,9.10762138 L20.7315491,8.92461728 C20.8008795,8.85458301 20.854725,8.76871186 20.8863988,8.67228278 L21.09439,8.67791367 C21.1975057,8.68072912 21.2833769,8.59943307 21.2865443,8.49596536 C21.2890078,8.39249766 21.2077117,8.30697844 21.104244,8.30416299 L20.8966048,8.29853209 C20.869858,8.20069529 20.8212915,8.11165675 20.7554804,8.03810318 L20.8642271,7.86072998 C20.8818237,7.83187164 20.8909739,7.79984592 20.8916777,7.76817213 C20.8934374,7.70341684 20.8617636,7.64006926 20.8026392,7.60346844 C20.7146564,7.54962301 20.599575,7.57707362 20.5453777,7.66505636" id="Fill-149"></path>
                    <path d="M4.99073298,7.03263642 C4.19924024,7.03263642 3.55450272,7.67667008 3.55450272,8.46851475 C3.55450272,9.26071134 4.19924024,9.90509694 4.99073298,9.90509694 C5.78292957,9.90509694 6.42731517,9.26071134 6.42731517,8.46851475 C6.42731517,7.67667008 5.78292957,7.03263642 4.99073298,7.03263642 L4.99073298,7.03263642 Z M4.99073298,10.506195 C3.86701741,10.506195 2.95305271,9.59223031 2.95305271,8.46851475 C2.95305271,7.34515112 3.86701741,6.43083448 4.99073298,6.43083448 C6.11444854,6.43083448 7.02841325,7.34515112 7.02841325,8.46851475 C7.02841325,9.59223031 6.11444854,10.506195 4.99073298,10.506195 L4.99073298,10.506195 Z" id="Fill-150"></path>
                    <path d="M5.83395956,8.36927022 L5.62702416,8.34780243 C5.61787395,8.29958789 5.60344478,8.25172528 5.58268086,8.20527039 C5.56191693,8.1588155 5.53622597,8.11587992 5.50666377,8.07681559 L5.62913574,7.90894452 C5.68966787,7.82518495 5.67136746,7.70834387 5.58760789,7.64781174 C5.50420025,7.58692769 5.38735917,7.6052281 5.32647512,7.68898767 L5.20435507,7.85721067 C5.11074144,7.82448109 5.01008918,7.8132193 4.90943693,7.82588881 L4.82497349,7.63584609 C4.78344564,7.54188052 4.67258739,7.49929688 4.57791796,7.54117666 C4.48395239,7.58340838 4.44136875,7.69356277 4.48360046,7.7882322 L4.56806389,7.97792299 C4.49134294,8.04408601 4.43221854,8.12678978 4.39385807,8.2179399 L4.18692266,8.19612018 C4.08451075,8.18521032 3.99230484,8.25981969 3.98139498,8.3622316 C3.97048512,8.46499544 4.04544641,8.55720135 4.14785832,8.56811121 L4.35479373,8.589579 C4.36394393,8.63744161 4.3783731,8.68530422 4.3987851,8.73211104 C4.41990096,8.77821399 4.44559192,8.82114957 4.47515412,8.86021391 L4.35268214,9.02843691 C4.29215002,9.11219648 4.31080236,9.22903756 4.39385807,9.28992161 C4.45016702,9.33039367 4.52125707,9.33532071 4.58038148,9.30892589 C4.60923981,9.29625637 4.63528271,9.27584438 4.65499084,9.24839376 L4.77781475,9.08017076 C4.87107645,9.11254841 4.97172871,9.12416213 5.07238096,9.11114069 L5.15684439,9.3011834 C5.19872418,9.3955009 5.3092305,9.43808455 5.403548,9.39585283 C5.49786549,9.35397305 5.54044914,9.24346673 5.49821743,9.14914923 L5.41375399,8.95910651 C5.49082688,8.89329542 5.54959935,8.81059164 5.58795982,8.71944152 L5.79489523,8.74126124 C5.8286806,8.74478055 5.86141018,8.73914966 5.89026852,8.72612821 C5.94939292,8.70008532 5.99338429,8.64377637 6.00007098,8.5747979 C6.01133277,8.47203406 5.9367234,8.38018008 5.83395956,8.36927022" id="Fill-151"></path>
                </g>
            </g>
        </g>
    </g>
</svg>