<?xml version="1.0" encoding="UTF-8" standalone="no"?>
<svg width="26px" height="13px" viewBox="0 0 26 13" version="1.1" xmlns="http://www.w3.org/2000/svg" xmlns:xlink="http://www.w3.org/1999/xlink">
    <!-- Generator: Sketch 3.8.3 (29802) - http://www.bohemiancoding.com/sketch -->
    <title>icon_v_van</title>
    <desc>Created with Sketch.</desc>
    <defs></defs>
    <g id="Symbols" stroke="none" stroke-width="1" fill="none" fill-rule="evenodd">
        <g id="vehicles/icon_v_van_button" transform="translate(-41.000000, -16.000000)" fill="#757575">
            <g id="icon_v_van_o">
                <g id="icon_v_van" transform="translate(41.407407, 16.814815)">
                    <path d="M19.2723532,9.9577254 C19.2723532,10.4897119 19.7044519,10.9221848 20.2364385,10.9221848 C20.768425,10.9221848 21.201272,10.4897119 21.201272,9.9577254 C21.201272,9.42573887 20.768425,8.99289188 20.2364385,8.99289188 C19.7044519,8.99289188 19.2723532,9.42573887 19.2723532,9.9577254 L19.2723532,9.9577254 Z M18.5080434,9.9577254 C18.5080434,9.00448934 19.2835765,8.22895623 20.2364385,8.22895623 C21.1896745,8.22895623 21.9652076,9.00448934 21.9652076,9.9577254 C21.9652076,10.9109615 21.1896745,11.6864946 20.2364385,11.6864946 C19.2835765,11.6864946 18.5080434,10.9109615 18.5080434,9.9577254 L18.5080434,9.9577254 Z" id="Fill-68"></path>
                    <path d="M19.7845118,9.9577254 C19.7845118,10.2068837 19.9872802,10.4096521 20.2368126,10.4096521 C20.4859708,10.4096521 20.6883651,10.2068837 20.6883651,9.9577254 C20.6883651,9.70894126 20.4859708,9.50579873 20.2368126,9.50579873 C19.9872802,9.50579873 19.7845118,9.70894126 19.7845118,9.9577254" id="Fill-69"></path>
                    <path d="M3.14365881,9.9577254 C3.14365881,10.4897119 3.57613169,10.9221848 4.10811822,10.9221848 C4.63973064,10.9221848 5.07295174,10.4897119 5.07295174,9.9577254 C5.07295174,9.42573887 4.63973064,8.99289188 4.10811822,8.99289188 C3.57613169,8.99289188 3.14365881,9.42573887 3.14365881,9.9577254 L3.14365881,9.9577254 Z M2.37934905,9.9577254 C2.37934905,9.00448934 3.15488215,8.22895623 4.10811822,8.22895623 C5.06135428,8.22895623 5.83688739,9.00448934 5.83688739,9.9577254 C5.83688739,10.9109615 5.06135428,11.6864946 4.10811822,11.6864946 C3.15488215,11.6864946 2.37934905,10.9109615 2.37934905,9.9577254 L2.37934905,9.9577254 Z" id="Fill-70"></path>
                    <path d="M2.90160868,4.69173214 C2.9771792,4.61653573 4.69547325,2.91717172 4.69547325,2.91717172 C4.79685746,2.81676019 4.996633,2.7345679 5.13954358,2.7345679 L7.32323232,2.7345679 C7.46614291,2.7345679 7.58286569,2.85144033 7.58286569,2.99420127 L7.58286569,4.82828283 C7.58286569,4.97119342 7.46614291,5.0879162 7.32323232,5.0879162 L3.03067714,5.0879162 C2.61990273,5.0879162 2.78713056,4.80621025 2.90160868,4.69173214 L2.90160868,4.69173214 Z M0.0793116349,9.58997381 C0.641601197,10.2386831 1.93864572,10.1518893 1.93864572,10.1518893 L1.94874673,10.1518893 C1.94313505,10.0879162 1.93864572,10.023569 1.93864572,9.9577254 C1.93864572,8.76169098 2.9120838,7.7882529 4.10811822,7.7882529 C5.30452675,7.7882529 6.27759072,8.76169098 6.27759072,9.9577254 C6.27759072,10.0231949 6.27310138,10.0879162 6.26748971,10.1518893 L18.077067,10.1518893 C18.0714553,10.0879162 18.066966,10.023569 18.066966,9.9577254 C18.066966,8.76169098 19.040404,7.7882529 20.2364385,7.7882529 C21.432847,7.7882529 22.405911,8.76169098 22.405911,9.9577254 C22.405911,10.023569 22.4017957,10.0879162 22.39581,10.1518893 C22.7070707,10.1526375 24.6393565,10.1556304 24.7635615,10.1556304 C24.8989899,10.1556304 25.0729517,10.0407782 25.0729517,9.889263 C25.0729517,9.73812196 25.077067,8.557052 25.0774411,8.47586981 C25.0774411,8.39506173 24.9367752,8.26000748 24.7744108,8.26000748 C24.8881407,4.07534605 24.442948,0.436326225 24.4306023,0.30748223 C24.4175084,0.172240928 24.2929293,0.0374859708 24.130939,0.0268237935 C23.9689487,0.0160867939 7.52001496,-0.00291806958 7.17209128,0.161279461 C6.8241676,0.325551814 2.56939768,4.56004489 2.37111859,4.70258137 C2.17321362,4.84511785 0.619902731,5.69734381 0.489711934,5.97306397 C0.36026936,6.24878414 0.306023195,6.98391321 0.349046016,7.84586607 C0.272353161,7.90497568 0.13842125,8.03815937 0.0789375234,8.1627385 C0.0198279087,8.28694351 0.00972689862,9.46763936 0.0793116349,9.58997381 L0.0793116349,9.58997381 Z" id="Fill-71"></path>
                    <path d="M3.65619155,9.9577254 C3.65619155,10.2068837 3.85895997,10.4096521 4.10811822,10.4096521 C4.35765058,10.4096521 4.56004489,10.2068837 4.56004489,9.9577254 C4.56004489,9.70894126 4.35765058,9.50579873 4.10811822,9.50579873 C3.85895997,9.50579873 3.65619155,9.70894126 3.65619155,9.9577254" id="Fill-72"></path>
                </g>
            </g>
        </g>
    </g>
</svg>