<?xml version="1.0" encoding="UTF-8" standalone="no"?>
<svg width="26px" height="14px" viewBox="0 0 26 14" version="1.1" xmlns="http://www.w3.org/2000/svg" xmlns:xlink="http://www.w3.org/1999/xlink">
    <!-- Generator: Sketch 3.8.3 (29802) - http://www.bohemiancoding.com/sketch -->
    <title>icon_v_moto</title>
    <desc>Created with Sketch.</desc>
    <defs></defs>
    <g id="Symbols" stroke="none" stroke-width="1" fill="none" fill-rule="evenodd">
        <g id="vehicles/icon_v_moto_button" transform="translate(-41.000000, -16.000000)" fill="#757575">
            <g id="icon_v_moto_o">
                <path d="M62.2823308,28.8210767 C60.5142106,28.8210767 59.0756299,27.3822557 59.0756299,25.6141355 C59.0756299,25.0199548 59.2385008,24.4632709 59.5213616,23.9859073 L61.0484444,25.1766723 C60.999987,25.31368 60.9721047,25.4603023 60.9721047,25.6141355 C60.9721047,26.3376322 61.5588341,26.9246019 62.2823308,26.9246019 C63.0058756,26.9246019 63.5926531,26.3376322 63.5926531,25.6141355 C63.5926531,24.890158 63.0058756,24.303669 62.2823308,24.303669 C62.0137958,24.303669 61.7644418,24.3849121 61.5564786,24.523362 L60.0305014,23.3335584 C60.6098756,22.7610105 61.4054817,22.4071942 62.2822828,22.4071942 C64.0505953,22.4071942 65.489224,23.8455345 65.489224,25.6141355 C65.4893202,27.3822557 64.0506434,28.8210767 62.2823308,28.8210767 L62.2823308,28.8210767 Z M48.9242258,25.6141355 C48.9242258,27.3822557 47.4856932,28.8210767 45.7176692,28.8210767 C43.9492605,28.8210767 42.5106317,27.3822557 42.5106317,25.6141355 C42.5106317,23.8455345 43.9492605,22.4071942 45.7176692,22.4071942 C46.1783996,22.4071942 46.6164876,22.5057436 47.0129927,22.6816903 L46.0082697,24.33732 C45.9146718,24.3156872 45.8176127,24.303669 45.7177172,24.303669 C44.9941724,24.303669 44.4074911,24.890158 44.4074911,25.6141355 C44.4074911,26.3376322 44.9942205,26.9246019 45.7177172,26.9246019 C46.4414062,26.9246019 47.0278472,26.3376322 47.0278472,25.6141355 C47.0278472,25.290605 46.910309,24.9944761 46.7157581,24.7666107 L47.7200004,23.1119425 C48.4535924,23.6998737 48.9242258,24.6026822 48.9242258,25.6141355 L48.9242258,25.6141355 Z M62.2823308,21.3039218 C61.0523864,21.3039218 59.9420954,21.8226281 59.1560559,22.6518851 L58.5302913,22.1639455 C59.3716627,21.2337354 60.4268622,20.4987012 61.4152885,20.119887 C63.5763564,19.2925528 65.278088,19.4290798 65.8291954,19.4338871 L66.4266931,18.8786454 C66.4266931,18.8786454 64.817598,18.464738 62.967225,18.5108879 C62.033746,18.5344436 59.6913954,18.9594078 59.6913954,18.9594078 L56.4845983,18.9594078 C55.8296054,18.9594078 55.1363946,21.1207641 54.651147,21.0746142 C54.1658514,21.0279835 52.8201475,20.8919373 52.4131626,20.8097327 C51.4756454,20.6203255 50.9976569,18.9574849 50.8020484,18.0320821 L51.4878559,16.9018889 L53.9675989,16.9018889 C54.1959931,16.9018889 54.3812179,16.7168084 54.3812179,16.4879815 C54.3812179,16.2596354 54.195945,16.0740741 53.9675989,16.0740741 L51.2549429,16.0740741 C51.1103878,16.0740741 50.9761202,16.1495485 50.9011265,16.2735765 L50.20806,17.4162687 L49.0316687,17.4162687 C48.9067273,17.4162687 48.7784208,17.5258748 48.744866,17.6614403 L48.3231707,19.3670658 C48.2896639,19.5021506 48.3638885,19.6122374 48.4886376,19.6122374 L48.8751915,19.6122374 L48.5616602,20.1295015 C47.3542139,19.6603103 45.8498215,19.4785948 44.0102169,19.7780888 L43.6324122,20.5794636 C45.4952841,20.0665261 46.9799666,20.2746816 48.1191495,20.8582863 L47.5891461,21.7317703 C47.0228476,21.457755 46.3879011,21.3039218 45.7176692,21.3039218 C43.3410425,21.3039218 41.4074074,23.2374127 41.4074074,25.6141355 C41.4074074,27.9908582 43.3410425,29.9243491 45.7176692,29.9243491 C48.0941035,29.9243491 50.0279309,27.9908582 50.0279309,25.6141355 C50.0279309,24.2036774 49.3466902,22.9489755 48.2963461,22.1625033 L48.8224075,21.2952687 C50.5384648,22.5672769 51.2331659,24.7454587 51.0711122,26.0280429 C51.0711122,26.0280429 54.6573484,26.0506371 56.9099471,26.0280429 C56.8489907,24.900734 57.2995777,23.7791939 58.0072584,22.8057183 L58.6464353,23.3037532 C58.2202693,23.9719662 57.9724056,24.7642071 57.9724056,25.6141355 C57.9724056,27.9908582 59.9056561,29.9243491 62.2823308,29.9243491 C64.6591498,29.9243491 66.5925926,27.9908582 66.5925926,25.6141355 C66.5925926,23.2374127 64.6591498,21.3039218 62.2823308,21.3039218 L62.2823308,21.3039218 Z" id="icon_v_moto"></path>
            </g>
        </g>
    </g>
</svg>