<?xml version="1.0" encoding="UTF-8" standalone="no"?>
<svg width="26px" height="10px" viewBox="0 0 26 10" version="1.1" xmlns="http://www.w3.org/2000/svg" xmlns:xlink="http://www.w3.org/1999/xlink">
    <!-- Generator: Sketch 3.8.3 (29802) - http://www.bohemiancoding.com/sketch -->
    <title>icon_v_truck</title>
    <desc>Created with Sketch.</desc>
    <defs></defs>
    <g id="Symbols" stroke="none" stroke-width="1" fill="none" fill-rule="evenodd">
        <g id="vehicles/icon_v_truck_button" transform="translate(-41.000000, -18.000000)" fill="#757575">
            <g id="icon_v_truck_o">
                <g id="icon_v_truck" transform="translate(41.407407, 18.296296)">
                    <path d="M3.47427607,8.16660068 L3.41205197,8.06374043 C3.43110016,8.04299906 3.4476086,8.01971793 3.46200057,7.99389705 C3.47596924,7.96807616 3.48655157,7.94140869 3.49459414,7.91474121 L3.61396283,7.91177816 C3.67407047,7.91093157 3.72105602,7.86182956 3.71978614,7.80256851 C3.71893955,7.74288416 3.66941425,7.69547532 3.6097299,7.6967452 L3.48993792,7.69886167 C3.4725829,7.64510343 3.44295237,7.59473153 3.40189293,7.55282551 L3.4598841,7.44827208 C3.48866804,7.39578372 3.46961984,7.33059656 3.41713148,7.30181262 C3.36548971,7.27302868 3.29987926,7.29207688 3.27109532,7.34414194 L3.21310415,7.44911866 C3.15638286,7.43684316 3.0975451,7.43853633 3.04251698,7.45250501 L2.98071617,7.35006805 C2.94981576,7.29927286 2.88378202,7.28276443 2.83298683,7.31366483 C2.78176835,7.34414194 2.76568321,7.41059898 2.79658361,7.46139417 L2.85838443,7.56383113 C2.83933623,7.58499579 2.8224045,7.60785362 2.80843582,7.63367451 C2.79404385,7.6594954 2.78346152,7.68616287 2.77584225,7.71325364 L2.65605026,7.7157934 C2.59678921,7.71706328 2.54938037,7.76616529 2.55065025,7.82542634 C2.55149684,7.8656392 2.57393138,7.89992595 2.60652496,7.91770427 C2.6226101,7.92659342 2.64081171,7.93167294 2.6602832,7.93082636 L2.78049847,7.92870989 C2.79785349,7.98289142 2.82748402,8.03326332 2.86854346,8.07474605 L2.81055229,8.17972277 C2.78176835,8.23178784 2.80081655,8.29739829 2.85288161,8.32618223 C2.90494668,8.35496617 2.97098042,8.33591797 2.99934107,8.28385291 L3.05733224,8.17887619 C3.11405353,8.19115169 3.172468,8.18945852 3.22749612,8.17548984 L3.28972022,8.2783501 C3.29987926,8.29443524 3.31384794,8.30798062 3.32950979,8.31686978 C3.36252666,8.33464809 3.40316281,8.33507139 3.43787285,8.31433002 C3.48866804,8.28385291 3.50475318,8.21739587 3.47427607,8.16660068" id="Fill-183"></path>
                    <path d="M3.1122511,6.98948066 C2.65001489,6.98948066 2.27370721,7.36578834 2.27370721,7.82844783 C2.27370721,8.29068404 2.65001489,8.66699172 3.1122511,8.66699172 C3.5744873,8.66699172 3.95079498,8.29068404 3.95079498,7.82844783 C3.95079498,7.36578834 3.5744873,6.98948066 3.1122511,6.98948066 L3.1122511,6.98948066 Z M3.1122511,9.11568254 C2.40238835,9.11568254 1.82501639,8.53788728 1.82501639,7.82844783 C1.82501639,7.11858509 2.40238835,6.54078984 3.1122511,6.54078984 C3.82169054,6.54078984 4.3990625,7.11858509 4.3990625,7.82844783 C4.3990625,8.53788728 3.82169054,9.11568254 3.1122511,9.11568254 L3.1122511,9.11568254 Z" id="Fill-184"></path>
                    <path d="M2.81005967,3.81497708 C2.81005967,3.83571845 2.79651429,3.85434335 2.77661951,3.86111605 C2.76730706,3.86450239 1.81955352,4.18832171 0.81550199,4.21922211 L0.813808817,4.21922211 C0.800686727,4.21922211 0.788411224,4.2137193 0.779098773,4.20440685 C0.769363029,4.1950944 0.76428351,4.18154902 0.764706803,4.16800363 C0.78798793,3.60290718 1.10969078,2.72245727 1.12323617,2.68520746 C1.13000886,2.66615927 1.14863376,2.65303718 1.16937513,2.65303718 L2.76095766,2.65303718 C2.78804843,2.65303718 2.81005967,2.67504842 2.81005967,2.70213919 L2.81005967,3.81497708 L2.81005967,3.81497708 Z M5.001872,1.68623545 C5.00102541,1.64940894 4.95869609,1.59438082 4.88123343,1.59607399 C4.29031609,1.60707961 1.80643143,1.59226435 1.11984982,1.59353423 C0.957305221,1.59395752 0.813808817,1.74126357 0.692323661,1.90550134 C0.625866625,1.9952395 0.506921228,2.26106765 0.508191108,2.36816084 C0.510730867,2.51292712 0.675391932,2.44943314 0.743118848,2.48625965 C0.650840925,2.73176972 0.478983875,3.3891441 0.460358973,4.2141426 C0.405330854,4.29202855 0.172096286,4.26536108 0.10436937,4.41097395 C0.0366424537,4.55616352 -0.0920386872,7.22799037 0.10436937,8.21087724 L1.52536473,8.21087724 C1.49446433,8.08600574 1.47626272,7.95605472 1.47626272,7.82144747 C1.47626272,6.92829876 2.20009413,6.20446735 3.09366613,6.20446735 C3.98681484,6.20446735 4.71106955,6.92829876 4.71106955,7.82144747 C4.71106955,7.95605472 4.69244465,8.08600574 4.66196754,8.21087724 L5.00144871,8.21087724 C5.00144871,8.21087724 5.00229529,1.72306196 5.001872,1.68623545 L5.001872,1.68623545 Z" id="Fill-185"></path>
                    <path d="M10.1586732,8.16660068 L10.0964491,8.06374043 C10.1159206,8.04299906 10.1320058,8.01971793 10.1463977,7.99389705 C10.1603664,7.96807616 10.171372,7.94140869 10.1789913,7.91474121 L10.2987833,7.91177816 C10.3584677,7.91093157 10.4054532,7.86182956 10.4041833,7.80256851 C10.4033367,7.74288416 10.3538114,7.69547532 10.2945504,7.6967452 L10.1747584,7.69886167 C10.1569801,7.64510343 10.1273496,7.59473153 10.0862901,7.55282551 L10.1442813,7.44827208 C10.1730652,7.39578372 10.154017,7.33059656 10.1015287,7.30181262 C10.0503102,7.27302868 9.98427644,7.29207688 9.95591579,7.34414194 L9.89792462,7.44911866 C9.84078004,7.43684316 9.78236557,7.43853633 9.72691416,7.45250501 L9.66553664,7.35006805 C9.63421294,7.29927286 9.5681792,7.28276443 9.51738401,7.31366483 C9.46616553,7.34414194 9.45008039,7.41059898 9.48098079,7.46139417 L9.54278161,7.56383113 C9.52373341,7.58499579 9.50722497,7.60785362 9.4932563,7.63367451 C9.47886433,7.6594954 9.468282,7.68616287 9.46023943,7.71325364 L9.34087074,7.7157934 C9.28160968,7.71706328 9.23377755,7.76616529 9.23504743,7.82542634 C9.23589402,7.8656392 9.25832856,7.89992595 9.29092214,7.91770427 C9.30700728,7.92659342 9.32563218,7.93167294 9.34510367,7.93082636 L9.46531894,7.92870989 C9.48225067,7.98289142 9.5118812,8.03326332 9.55294064,8.07474605 L9.49494947,8.17972277 C9.46616553,8.23178784 9.48563702,8.29739829 9.53770209,8.32618223 C9.58976715,8.35496617 9.6553776,8.33591797 9.68373825,8.28385291 L9.74172942,8.17887619 C9.79845071,8.19115169 9.85686518,8.18945852 9.91231659,8.17548984 L9.9745407,8.2783501 C9.98427644,8.29443524 9.99866841,8.30798062 10.0143303,8.31686978 C10.0469238,8.33464809 10.08756,8.33507139 10.12227,8.31433002 C10.1730652,8.28385291 10.1891504,8.21739587 10.1586732,8.16660068" id="Fill-186"></path>
                    <path d="M9.7962252,6.98948066 C9.33398899,6.98948066 8.95768132,7.36578834 8.95768132,7.82844783 C8.95768132,8.29068404 9.33398899,8.66699172 9.7962252,8.66699172 C10.2588847,8.66699172 10.6347691,8.29068404 10.6347691,7.82844783 C10.6347691,7.36578834 10.2588847,6.98948066 9.7962252,6.98948066 L9.7962252,6.98948066 Z M9.7962252,9.11568254 C9.08636246,9.11568254 8.50941379,8.53788728 8.50941379,7.82844783 C8.50941379,7.11858509 9.08636246,6.54078984 9.7962252,6.54078984 C10.5060879,6.54078984 11.0834599,7.11858509 11.0834599,7.82844783 C11.0834599,8.53788728 10.5060879,9.11568254 9.7962252,9.11568254 L9.7962252,9.11568254 Z" id="Fill-187"></path>
                    <path d="M20.8664789,8.16660068 L20.8046781,8.06374043 C20.8237263,8.04299906 20.8402347,8.01971793 20.8546267,7.99389705 C20.8685954,7.96807616 20.8791777,7.94140869 20.8872203,7.91474121 L21.006589,7.91177816 C21.0666966,7.91093157 21.1136821,7.86182956 21.1124123,7.80256851 C21.1111424,7.74288416 21.0620404,7.69547532 21.002356,7.6967452 L20.882564,7.69886167 C20.865209,7.64510343 20.8355785,7.59473153 20.794519,7.55282551 L20.8525102,7.44827208 C20.8812942,7.39578372 20.8618227,7.33059656 20.8097576,7.30181262 C20.7581158,7.27302868 20.6925054,7.29207688 20.6637214,7.34414194 L20.6057303,7.44911866 C20.5485857,7.43684316 20.4901712,7.43853633 20.4351431,7.45250501 L20.3733423,7.35006805 C20.3424419,7.29927286 20.2759848,7.28276443 20.2256129,7.31366483 C20.1743945,7.34414194 20.1583093,7.41059898 20.1887864,7.46139417 L20.2505872,7.56383113 C20.2319623,7.58499579 20.2150306,7.60785362 20.2010619,7.63367451 C20.18667,7.6594954 20.1760876,7.68616287 20.1684684,7.71325364 L20.0486764,7.7157934 C19.9894153,7.71706328 19.9420065,7.76616529 19.9432764,7.82542634 C19.944123,7.8656392 19.9661342,7.89992595 19.9991511,7.91770427 C20.0152362,7.92659342 20.0334378,7.93167294 20.0529093,7.93082636 L20.1731246,7.92870989 C20.1904796,7.98289142 20.2201101,8.03326332 20.2607463,8.07474605 L20.2031784,8.17972277 C20.1743945,8.23178784 20.1934427,8.29739829 20.2455077,8.32618223 C20.2975728,8.35496617 20.3631832,8.33591797 20.3919672,8.28385291 L20.4499584,8.17887619 C20.5066796,8.19115169 20.5650941,8.18945852 20.6201222,8.17548984 L20.6823463,8.2783501 C20.6920821,8.29443524 20.7064741,8.30798062 20.7221359,8.31686978 C20.7547295,8.33464809 20.7957889,8.33507139 20.830499,8.31433002 C20.8812942,8.28385291 20.8973793,8.21739587 20.8664789,8.16660068" id="Fill-188"></path>
                    <path d="M20.5488535,6.98948066 C20.086194,6.98948066 19.7103096,7.36578834 19.7103096,7.82844783 C19.7103096,8.29068404 20.086194,8.66699172 20.5488535,8.66699172 C21.0110897,8.66699172 21.3873974,8.29068404 21.3873974,7.82844783 C21.3873974,7.36578834 21.0110897,6.98948066 20.5488535,6.98948066 L20.5488535,6.98948066 Z M20.5488535,9.11568254 C19.8389908,9.11568254 19.2616188,8.53788728 19.2616188,7.82844783 C19.2616188,7.11858509 19.8389908,6.54078984 20.5488535,6.54078984 C21.258293,6.54078984 21.8356649,7.11858509 21.8356649,7.82844783 C21.8356649,8.53788728 21.258293,9.11568254 20.5488535,9.11568254 L20.5488535,9.11568254 Z" id="Fill-189"></path>
                    <polygon id="Fill-210" points="7.36603002 5.46444271 25.1840066 5.46444271 25.1840066 0.0103094903 7.36603002 0.0103094903"></polygon>
                    <path d="M19.057239,7.0955858 C18.9612175,7.29632547 18.9053419,7.51996498 18.8999786,7.75606336 L11.4004926,7.75606336 C11.3805978,6.88026967 10.6656555,6.17590974 9.78478231,6.17590974 C8.9039091,6.17590974 8.18896684,6.88026967 8.16907206,7.75606336 L5.29914399,7.75606336 L5.29914399,5.81526391 L19.0572391,5.81526391 L19.0572391,7.09558559 L19.057239,7.0955858 L19.057239,7.0955858 Z M19.0572391,7.08208566 C19.0576702,7.08296343 19.0581007,7.08384164 19.0585303,7.0847203 C19.3213954,6.5471379 19.8720999,6.17590974 20.5108494,6.17590974 C21.3917226,6.17590974 22.1066648,6.88026967 22.1265596,7.75606336 L25.1840066,7.75606336 L25.1840066,5.81526391 L19.0572391,5.81526391 L19.0572391,7.08208545 L19.0572391,7.08208566 L19.0572391,7.08208566 Z" id="Combined-Shape"></path>
                </g>
            </g>
        </g>
    </g>
</svg>