<?xml version="1.0" encoding="UTF-8" standalone="no"?>
<svg width="26px" height="15px" viewBox="0 0 26 15" version="1.1" xmlns="http://www.w3.org/2000/svg" xmlns:xlink="http://www.w3.org/1999/xlink">
    <!-- Generator: Sketch 3.8.3 (29802) - http://www.bohemiancoding.com/sketch -->
    <title>icon_v_bike</title>
    <desc>Created with Sketch.</desc>
    <defs></defs>
    <g id="Symbols" stroke="none" stroke-width="1" fill="none" fill-rule="evenodd">
        <g id="vehicles/icon_v_bike_button" transform="translate(-41.000000, -15.000000)" fill="#757575">
            <g id="icon_v_bike_o">
                <g id="icon_v_bike" transform="translate(41.407407, 15.333333)">
                    <path d="M20.1820552,13.3168703 C22.5196292,13.3168703 24.4213101,11.414981 24.4213101,9.07771954 C24.4213101,6.73993725 22.5195771,4.83836046 20.1820552,4.83836046 C19.4593685,4.83836046 18.7785005,5.02058145 18.1824155,5.34060087 L17.7432415,4.79966649 C18.4628556,4.38767728 19.2951144,4.1509306 20.1821073,4.1509306 C22.8987571,4.1509306 25.1088441,6.36080927 25.1088441,9.07771954 C25.1088441,11.794109 22.8987571,14.0043002 20.1820552,14.0043002 C17.8926534,14.0043002 15.9630586,12.4341479 15.4129064,10.3145725 L16.1095541,10.2515581 C16.6199708,12.0196068 18.2519396,13.3168703 20.1820552,13.3168703 Z M20.3120419,7.87784197 L20.7739219,5.27862803 L20.9392175,5.30779172 L20.4521839,8.050741 L20.3120419,7.87784197 Z M20.6136257,8.24967903 L22.1828927,5.79315886 L22.3245449,5.88377461 L20.7251769,8.387165 L20.6136257,8.24967903 Z M20.8472998,8.53767048 L20.8341241,8.52152629 L23.2876758,6.80815946 L23.383916,6.94564543 L20.9288019,8.66005382 C20.9050023,8.61787063 20.8787029,8.57620821 20.8472998,8.53767048 Z M16.4147313,8.32258826 L17.2930271,8.47882231 L16.6567899,8.53610814 L16.3853593,8.48819636 L16.4147313,8.32258826 Z M19.655963,7.06959111 L19.2752206,5.34216321 L19.4392143,5.3057086 L19.8920848,7.36018646 L19.655963,7.06959111 Z M20.9954618,8.81264242 L23.9200592,8.16843732 L23.9561492,8.33248308 L21.0321768,8.97668818 C21.0254066,8.9209647 21.01296,8.86628278 20.9954618,8.81264242 Z M16.9000984,7.07896516 L16.9905579,6.93731294 L17.7191294,7.40289044 L18.0550847,7.81691069 L16.9000984,7.07896516 Z M20.9447899,9.46361766 L23.4687511,11.0759531 L23.3783436,11.2176053 L20.8558927,9.60631143 C20.8903163,9.56256589 20.9191154,9.51413334 20.9447899,9.46361766 Z M20.115864,9.94429778 L19.5949797,12.876811 L19.4295799,12.8471266 L19.9424963,9.95992118 L20.115864,9.94429778 Z M19.7069474,9.98127317 L18.1859568,12.3617594 L18.0443046,12.2716645 L19.4951982,10.0000213 L19.7069474,9.98127317 Z M18.9377551,10.0505369 L17.0811737,11.3472796 L16.9850377,11.2092729 L18.6003937,10.081263 L18.9377551,10.0505369 Z M20.4495279,9.89013664 L21.0936809,12.8132759 L20.9296352,12.8492097 L20.2855342,9.92711203 C20.3420389,9.91982111 20.3966687,9.90732238 20.4495279,9.89013664 Z M20.7396545,9.72609088 L22.4540629,12.1810487 L22.3162124,12.2768723 L20.6028456,9.82347677 C20.6517989,9.79587542 20.6971589,9.76254549 20.7396545,9.72609088 Z M21.0346244,9.14333784 L23.9835423,9.66724271 L23.9541703,9.83233003 L21.0064502,9.30894594 C21.0218133,9.25426402 21.030354,9.19906132 21.0346244,9.14333784 Z M16.937855,6.35299757 C16.4030658,6.9883494 16.0508101,7.7825392 15.9640481,8.65432524 L15.2700043,8.71733964 C15.3507773,7.60651549 15.8006794,6.5967227 16.4983165,5.81138617 L16.937855,6.35299757 Z" id="Combined-Shape"></path>
                    <path d="M4.92939283,4.1509306 C5.45860967,4.1509306 5.96819308,4.2357657 6.44637346,4.39085404 L6.17749464,5.02599756 C5.7826391,4.90413499 5.36361936,4.83836046 4.92939283,4.83836046 C2.5919751,4.83836046 0.690189989,6.73993725 0.690189989,9.07771954 C0.690189989,11.414981 2.5919751,13.3168703 4.92939283,13.3168703 C7.26691473,13.3168703 9.16869984,11.414981 9.16869984,9.07771954 C9.16869984,7.75025082 8.55522077,6.56443433 7.59745392,5.78638872 L7.87502976,5.13072646 C9.07683421,6.03011385 9.85618177,7.4643425 9.85618177,9.07771954 C9.85618177,11.794109 7.64599063,14.0043002 4.92949699,14.0043002 C2.21279504,14.0043002 0.00281221304,11.794109 0.00281221304,9.07771954 C0.00281221304,6.36080927 2.21279504,4.1509306 4.92939283,4.1509306 Z M3.98636406,8.57464587 L1.64504047,7.07896516 L1.73544791,6.93731294 L4.0995296,8.4475755 C4.05708601,8.48663402 4.01938153,8.52933799 3.98636406,8.57464587 Z M4.28326085,8.29915315 L2.6597286,5.97439037 L2.79763119,5.87804603 L4.40434224,8.17885292 C4.36122164,8.22520236 4.32075702,8.26530244 4.28326085,8.29915315 Z M5.68410749,5.30779172 L5.42788363,6.75087364 L5.4255922,6.75608144 C5.3519018,6.87846478 5.27217036,7.00553515 5.18957462,7.13156396 L5.51875978,5.27862803 L5.68410749,5.30779172 Z M3.83070286,8.96783491 L1.13024925,8.48819636 L1.15956918,8.32258826 L3.8685115,8.80378915 C3.85054459,8.85690873 3.83799378,8.91211143 3.83070286,8.96783491 Z M6.17348464,8.71733964 L8.664845,8.16843732 L8.70098714,8.33248308 L6.0145946,8.92461016 C6.06870366,8.85586717 6.12187532,8.78660341 6.17348464,8.71733964 Z M4.5963539,7.95647978 L4.02005854,5.34216321 L4.18420846,5.3057086 L4.7304548,7.7851431 C4.68488653,7.84503282 4.6399432,7.90283942 4.5963539,7.95647978 Z M8.12880595,6.94564543 L6.71046109,7.93616935 C6.81394012,7.77420671 6.8904948,7.64713635 6.92903254,7.58203882 C6.92991787,7.58047648 6.93064696,7.57839336 6.93153228,7.57683102 L8.03261785,6.80815946 L8.12880595,6.94564543 Z M5.16238989,9.78545982 C5.16499379,9.78389748 5.16759769,9.78181436 5.17004536,9.77973123 L5.83851882,12.8132759 L5.67447306,12.8492097 L5.01683183,9.86461841 C5.06734751,9.84326642 5.11624877,9.81722741 5.16238989,9.78545982 Z M4.13296369,9.7359857 L1.82616782,11.3472796 L1.72997972,11.2092729 L4.01344463,9.61464391 C4.0495347,9.65943101 4.08942646,9.70005187 4.13296369,9.7359857 Z M3.8834579,9.39435389 L1.19378444,9.98700175 L1.15769437,9.82295599 L3.83705638,9.23239125 C3.84700328,9.28707317 3.8623663,9.34123431 3.8834579,9.39435389 Z M5.82794698,9.15167032 L8.72848434,9.66724271 L8.69911234,9.83233003 L5.69775193,9.2995719 C5.74149747,9.25166012 5.78493053,9.202186 5.82794698,9.15167032 Z M4.49501008,9.91357174 L2.93079469,12.3617594 L2.78919455,12.2716645 L4.33049561,9.85888982 C4.3833548,9.88232493 4.4380888,9.90107302 4.49501008,9.91357174 Z M5.59843915,9.40529028 L8.21369312,11.0759531 L8.1232336,11.2176053 L5.47610788,9.52663206 C5.51683289,9.48757355 5.55766206,9.44747347 5.59843915,9.40529028 Z M4.86606596,9.91409252 L4.33986966,12.876811 L4.17446987,12.8476473 L4.69191707,9.93440295 C4.75097354,9.93336139 4.80919677,9.92659125 4.86606596,9.91409252 Z M5.39648059,9.60006207 L7.19895291,12.1810487 L7.06115447,12.2768723 L5.26727502,9.70838435 C5.309979,9.67453364 5.35320375,9.6385998 5.39648059,9.60006207 Z" id="Combined-Shape"></path>
                    <path d="M18.083936,1.28731656 C18.3015179,1.28731656 19.1175805,1.16071489 19.2406929,1.04921585 C19.3107899,0.98568067 19.3431304,0.890065427 19.3274028,0.793200311 C19.3019887,0.6373308 19.1630967,0.497136772 18.9147887,0.376576157 L18.8959364,0.367410426 L18.8750531,0.363556652 C18.668668,0.32548762 18.2626677,0.306010441 17.668145,0.306010441 C16.8213044,0.306010441 15.8906702,0.344235707 15.7795357,0.349912211 C15.5800769,0.360327815 15.3600472,0.462609045 15.2678171,0.588012915 C15.2172493,0.656755901 15.2041256,0.732373185 15.2307375,0.80111617 L15.2408406,0.827571804 L15.2621406,0.848038465 C15.3464549,0.929280175 15.4158749,0.973494414 15.5398726,0.973494414 C15.5815871,0.973494414 15.6264784,0.968807392 15.6885554,0.962349718 C15.8144279,0.949278135 16.0048252,0.929488488 16.3474986,0.929488488 C16.4573311,0.929488488 16.576069,0.931623686 16.7004834,0.93573785 C17.3691131,0.955631653 17.5989854,1.09072204 17.7510012,1.18008792 C17.8367737,1.23044736 17.917755,1.27809875 18.0323787,1.28575422 C18.0480021,1.28679578 18.0651358,1.28731656 18.083936,1.28731656" id="Fill-264"></path>
                    <path d="M8.47048983,2.79289209 L8.65562719,2.42277361 L15.4957625,4.0625542 L13.8859789,8.25853229 C13.8140071,8.24551279 13.7400563,8.23770108 13.6642307,8.23770108 C13.4591995,8.23770108 13.2663546,8.28821676 13.0966324,8.37779096 L8.47048983,2.79289209 L8.47048983,2.79289209 Z M14.502166,8.57152119 L16.0514871,4.53318326 L19.5088947,8.79337355 L14.8616085,9.21416395 C14.8104679,8.96314789 14.6815227,8.74077475 14.502166,8.57152119 L14.502166,8.57152119 Z M11.2582262,10.0130408 L11.2582262,10.7582772 L11.8692055,10.7582772 L11.8692055,10.2046879 L12.5495007,9.95887962 C12.7405749,10.3848778 13.1674064,10.6817225 13.6642307,10.6817225 C14.1798552,10.6817225 14.6200707,10.3619635 14.7994794,9.90992628 L20.2130937,9.41987212 C20.3395391,9.40841496 20.4493717,9.32821481 20.4986895,9.21156004 C20.5480595,9.0943845 20.528999,8.95950243 20.448955,8.86107498 L16.3356248,3.79258175 L17.1423133,1.68982757 C17.2103793,1.51244984 17.1217425,1.31366804 16.944573,1.24570622 C16.7672995,1.17795272 16.5684656,1.26627704 16.5005559,1.44344646 L15.7441226,3.4152765 L8.80759085,1.75232119 L9.34685874,0.478440763 C9.4208616,0.303771086 9.33915119,0.101968762 9.16437736,0.0280700524 C9.12625625,0.0117696324 9.08698942,0.0043224756 9.04793091,0.00229143285 L7.12073173,0.000520780193 C6.4190325,0.00525987994 5.84846572,0.537132691 5.84846572,1.18638936 C5.84846572,1.8356981 6.4190325,2.36767507 7.12021095,2.37231001 L7.19713018,2.37283079 L7.19713018,1.99198424 L7.12125251,1.9913593 C6.62953185,1.98734929 6.22941643,1.62613615 6.22941643,1.18633728 C6.22941643,0.746486328 6.62958393,0.385481498 7.12125251,0.381575647 L7.17739261,0.381106945 L8.64140989,0.381471491 L5.76935921,7.16489389 C5.54255943,7.54454265 4.90819708,8.52100551 4.50828997,8.79337355 C4.35143098,8.90065427 4.31096636,9.11417415 4.41798669,9.27092899 C4.48449032,9.36883566 4.59250013,9.42143446 4.70222851,9.42143446 C4.76888838,9.42143446 4.83632941,9.4021656 4.8955942,9.36154474 C5.50131364,8.94856605 6.28519199,7.64349089 6.37242267,7.49611009 C6.38039061,7.48256981 6.38736906,7.46902952 6.39325388,7.45496846 L8.09995472,3.42345275 L12.6013183,8.85742951 C12.500339,9.03553634 12.4418554,9.24020296 12.4418554,9.45945142 C12.4420637,9.50267617 12.4444072,9.54485937 12.4486776,9.58652178 L11.2582262,10.0130408 Z" id="Fill-266"></path>
                </g>
            </g>
        </g>
    </g>
</svg>