<?xml version="1.0" encoding="UTF-8"?>
<svg width="20px" height="20px" viewBox="0 0 20 20" version="1.1" xmlns="http://www.w3.org/2000/svg" xmlns:xlink="http://www.w3.org/1999/xlink">
    <!-- Generator: sketchtool 41 (35326) - http://www.bohemiancoding.com/sketch -->
    <title>73ADCDC8-57B2-4E8A-83A8-268C25292C4E</title>
    <desc>Created with sketchtool.</desc>
    <defs></defs>
    <g id="Web-App-4.0" stroke="none" stroke-width="1" fill="none" fill-rule="evenodd">
        <g id="Route-opened" transform="translate(-346.000000, -574.000000)">
            <g id="Left-Actions-Details" transform="translate(320.000000, 0.000000)">
                <g id="Card-1" transform="translate(21.000000, 148.000000)">
                    <g id="Status" transform="translate(3.000000, 417.000000)">
                        <g id="info-outline" transform="translate(0.000000, 7.000000)">
                            <rect id="Rectangle-309" x="0" y="0" width="24" height="24"></rect>
                            <path d="M11,17 L13,17 L13,11 L11,11 L11,17 L11,17 Z M12,2 C6.5,2 2,6.5 2,12 C2,17.5 6.5,22 12,22 C17.5,22 22,17.5 22,12 C22,6.5 17.5,2 12,2 L12,2 Z M12,20 C7.6,20 4,16.4 4,12 C4,7.6 7.6,4 12,4 C16.4,4 20,7.6 20,12 C20,16.4 16.4,20 12,20 L12,20 Z M11,9 L13,9 L13,7 L11,7 L11,9 L11,9 Z" id="Shape" fill-opacity="0.54" fill="#000000"></path>
                        </g>
                    </g>
                </g>
            </g>
        </g>
    </g>
</svg>