<?xml version="1.0" encoding="UTF-8"?>
<svg width="16px" height="16px" viewBox="0 0 16 16" version="1.1" xmlns="http://www.w3.org/2000/svg" xmlns:xlink="http://www.w3.org/1999/xlink">
    <!-- Generator: sketchtool 40.3 (33839) - http://www.bohemiancoding.com/sketch -->
    <title>28A324FE-F048-423F-8804-F25D46D9DAD4</title>
    <desc>Created with sketchtool.</desc>
    <defs></defs>
    <g id="Web-App-4.0" stroke="none" stroke-width="1" fill="none" fill-rule="evenodd">
        <g id="Track-page-4" transform="translate(-100.000000, -579.000000)">
            <g id="Card2" transform="translate(72.000000, 179.000000)">
                <g id="Name" transform="translate(24.000000, 392.000000)">
                    <g id="person" transform="translate(0.000000, 4.000000)">
                        <rect id="Rectangle-289" x="0" y="0" width="24" height="24"></rect>
                        <path d="M12,12 C14.2,12 16,10.2 16,8 C16,5.8 14.2,4 12,4 C9.8,4 8,5.8 8,8 C8,10.2 9.8,12 12,12 L12,12 Z M12,14 C9.3,14 4,15.3 4,18 L4,20 L20,20 L20,18 C20,15.3 14.7,14 12,14 L12,14 Z" id="Shape" fill="#757575"></path>
                    </g>
                </g>
            </g>
        </g>
    </g>
</svg>