<?xml version="1.0" encoding="UTF-8"?>
<svg width="14px" height="20px" viewBox="0 0 14 20" version="1.1" xmlns="http://www.w3.org/2000/svg" xmlns:xlink="http://www.w3.org/1999/xlink">
    <!-- Generator: sketchtool 40.3 (33839) - http://www.bohemiancoding.com/sketch -->
    <title>1AFB7C77-4AE5-47BA-B2F6-D0B8F92D1228</title>
    <desc>Created with sketchtool.</desc>
    <defs></defs>
    <g id="Web-App-4.0" stroke="none" stroke-width="1" fill="none" fill-rule="evenodd">
        <g id="Create-routes-route-m-loading" transform="translate(-29.000000, -90.000000)">
            <g id="Left-Actions">
                <g id="Card-1" transform="translate(0.000000, 64.000000)">
                    <g id="Number" transform="translate(24.000000, 20.000000)">
                        <g id="place" transform="translate(0.000000, 4.000000)">
                            <rect id="Rectangle-284" x="0" y="0" width="24" height="24"></rect>
                            <path d="M12,2 C8.1,2 5,5.1 5,9 C5,14.2 12,22 12,22 C12,22 19,14.2 19,9 C19,5.1 15.9,2 12,2 L12,2 Z M12,11.5 C10.6,11.5 9.5,10.4 9.5,9 C9.5,7.6 10.6,6.5 12,6.5 C13.4,6.5 14.5,7.6 14.5,9 C14.5,10.4 13.4,11.5 12,11.5 L12,11.5 Z" id="Shape" fill="#757575"></path>
                        </g>
                    </g>
                </g>
            </g>
        </g>
    </g>
</svg>